PathFileType	4	(X/Y/Z)	S01_0007_Gait_markers.trc
DataRate	CameraRate	NumFrames	NumMarkers	Units	OrigDataRate	OrigDataStartFrame	OrigNumFrames
250.000000	250.000000	4	54	mm	250.000000	113	302
Frame#	Time	HEAD_ANT			R_HEAD			L_HEAD			C7			R_BACK			L_BACK			STERNUM			R_ACROMION			R_HUM_PROX			R_HUM_ANT			R_HUM_POST			R_ELBOW_LAT			R_ELBOW_MED			R_FOREARM			R_WIRST_LAT			R_WRITS_MED			R_HAND			L_ACROMION			L_HUM_PROX			L_HUM_ANT			L_HUM_POST			L_ELBOW_LAT			L_ELBOW_MED			L_FOREARM			L_WRIST_LAT			L_WIRST_MED			L_HAND			R_ILIAC			SACRUM			L_ILIAC			R_GTROCH			R_THIGH__1			R_THIGH_2			R_THIGH_3			R_THIGH_4			R_SHANK_1			R_SHANK_2			R_SHANK_3			R_SHANK_4			R_HEEL			R_FOOT_LAT			R_FOOT_MED			L_GTROCH			L_THIGH_1			L_THIGH_2			L_THIGH_3			L_THIGH_4			L_SHANK_1			L_SHANK_2			L_SHANK_3			L_SHANK_4			L_HEEL			L_FOOT_LAT			L_FOOT_MED			
		X1	Y1	Z1	X2	Y2	Z2	X3	Y3	Z3	X4	Y4	Z4	X5	Y5	Z5	X6	Y6	Z6	X7	Y7	Z7	X8	Y8	Z8	X9	Y9	Z9	X10	Y10	Z10	X11	Y11	Z11	X12	Y12	Z12	X13	Y13	Z13	X14	Y14	Z14	X15	Y15	Z15	X16	Y16	Z16	X17	Y17	Z17	X18	Y18	Z18	X19	Y19	Z19	X20	Y20	Z20	X21	Y21	Z21	X22	Y22	Z22	X23	Y23	Z23	X24	Y24	Z24	X25	Y25	Z25	X26	Y26	Z26	X27	Y27	Z27	X28	Y28	Z28	X29	Y29	Z29	X30	Y30	Z30	X31	Y31	Z31	X32	Y32	Z32	X33	Y33	Z33	X34	Y34	Z34	X35	Y35	Z35	X36	Y36	Z36	X37	Y37	Z37	X38	Y38	Z38	X39	Y39	Z39	X40	Y40	Z40	X41	Y41	Z41	X42	Y42	Z42	X43	Y43	Z43	X44	Y44	Z44	X45	Y45	Z45	X46	Y46	Z46	X47	Y47	Z47	X48	Y48	Z48	X49	Y49	Z49	X50	Y50	Z50	X51	Y51	Z51	X52	Y52	Z52	X53	Y53	Z53	X54	Y54	Z54	

114	0.452	826.4508666992188	1746.65576171875	-348.3886413574215	769.0156860351562	1692.744506835938	-271.5031738281246	771.4326171875	1695.143432617188	-419.6050415039059	636.9463500976562	1523.63623046875	-345.3446350097653	562.5601196289062	1329.683349609375	-274.6088867187497	558.5029296875	1332.238647460938	-414.6387023925778	810.7774047851562	1357.353393554688	-351.0941772460935	718.76171875	1470.518432617188	-175.3448791503903	693.5240478515625	1308.88916015625	-83.76700592040987	756.1806030273438	1223.919677734375	-95.14689636230442	638.4815673828125	1224.010986328125	-63.77241897582981	691.0808715820312	1117.33935546875	-70.37381744384741	645.3972778320312	1116.273193359375	-143.1697540283201	823.0763549804688	963.4051513671875	-129.4559478759763	862.1788330078125	916.1952514648438	-189.5665130615232	814.8621826171875	871.2264404296875	-140.550094604492	901.6080322265625	826.9295654296875	-154.7033843994139	710.5418090820312	1479.370361328125	-515.1180419921872	662.9757080078125	1319.858520507813	-613.7369995117184	714.9892578125	1233.566162109375	-627.299133300781	592.000732421875	1250.549560546875	-634.5404663085935	640.83642578125	1140.86376953125	-655.058898925781	593.75244140625	1137.745361328125	-593.4196777343748	732.0393676757812	958.6179199218751	-654.8768310546873	770.9271240234375	898.6922607421876	-611.190246582031	712.3726196289062	875.5167236328126	-660.916564941406	790.4427490234375	814.8071289062501	-660.312561035156	694.1505737304688	1072.54541015625	-177.495422363281	571.2492065429688	1047.032104492188	-351.6367187499998	690.8057861328125	1071.450561523438	-522.3389892578123	635.8407592773438	930.501953125	-171.6294097900389	611.3487548828125	658.2474365234375	-197.8979339599608	669.9564208984375	661.9572143554688	-191.4886779785155	653.2921752929688	562.2057495117188	-229.8946685791014	593.0972900390625	582.499755859375	-220.8625640869139	520.9591674804688	356.8025207519532	-230.825942993164	571.2244873046875	326.7254333496094	-245.9066772460937	551.7114868164062	245.6238708496094	-268.3892822265624	490.3377990722656	263.6904296875001	-258.2639770507812	413.7160339355469	68.95780181884774	-353.7817993164062	566.2776489257812	19.72300338745123	-260.02880859375	629.9231567382812	29.43453216552742	-357.6488342285156	671.5377807617188	960.2042236328126	-533.5180664062498	855.4734497070312	705.0432739257814	-525.0202026367186	799.6233520507812	704.8928833007814	-542.7663574218749	819.0191040039062	603.2169189453126	-515.6018676757811	878.2008056640625	627.2161254882814	-501.4080505371093	887.6187744140625	351.8574218750001	-510.0532836914062	832.8410034179688	325.1197204589845	-513.1904296874999	839.9041748046875	238.4848175048829	-498.6510314941406	902.0468139648438	251.8707580566407	-492.7458801269531	826.3555297851562	43.26723480224619	-432.7928161621094	1004.553588867188	42.18381118774425	-497.6849670410156	1034.210815429688	64.71778106689462	-405.2996826171875	
115	0.456	832.0260620117188	1745.461791992188	-348.7152099609371	774.6741333007812	1691.731567382812	-271.5969543457027	777.2591552734375	1694.20947265625	-419.6987304687496	642.5377807617188	1522.558959960938	-345.4471740722653	567.9676513671875	1328.895385742188	-274.633850097656	563.7944946289062	1331.4208984375	-414.7487487792966	816.0961303710938	1356.1201171875	-350.9221496582028	724.4276733398438	1469.522216796875	-175.51741027832	699.44287109375	1307.852294921875	-83.86074829101534	762.0723876953125	1222.98974609375	-95.4517517089841	644.3029174804688	1222.98291015625	-63.89918899536106	696.8973999023438	1116.253173828125	-70.49573516845679	651.3473510742188	1115.09228515625	-143.1119842529294	829.3253173828125	962.8948364257812	-129.8998870849607	868.5254516601562	915.8355102539062	-190.1410064697264	821.3467407226562	870.6331787109375	-141.0852813720701	908.226806640625	826.5987548828125	-155.499801635742	715.8563232421875	1478.2490234375	-515.3745727539059	668.2691650390625	1318.893432617188	-613.7666015624997	720.1365356445312	1232.339599609375	-627.140197753906	597.1032104492188	1249.771484375	-634.5082397460935	645.9594116210938	1139.719604492188	-654.8863525390623	598.7684936523438	1136.836181640625	-593.2944335937498	736.607666015625	957.6481933593751	-655.4537963867185	775.8787841796875	897.7425537109376	-611.075012207031	717.2420654296875	874.7040405273439	-660.9327392578123	795.5615844726562	813.8392333984376	-660.402893066406	699.65771484375	1071.826293945312	-177.7154235839841	576.4886474609375	1045.8818359375	-352.114562988281	695.8731689453125	1070.343017578125	-522.7398681640623	640.9930419921875	930.2389526367188	-171.7697296142576	614.5523071289062	658.343505859375	-197.9732818603514	673.2070922851562	661.802490234375	-191.3728027343749	655.97216796875	562.1805419921875	-229.7166290283202	595.906494140625	582.8155517578125	-220.8612365722655	522.22509765625	357.3576354980469	-230.8607635498046	572.3632202148438	326.8602294921876	-245.683135986328	552.146728515625	245.8512725830079	-268.6926269531249	491.2798156738281	264.3818664550782	-258.4031677246093	414.0611267089844	69.93405151367196	-354.10107421875	566.1458129882812	19.75242424011236	-260.1253051757812	630.0137329101562	29.52151298522957	-357.5782470703125	676.781005859375	958.8735961914064	-533.6314697265623	860.6647338867188	703.4297485351564	-524.8930053710936	804.22802734375	702.9373779296876	-542.6056518554686	823.38134765625	601.3516845703126	-514.7666625976561	882.8085327148438	625.6864624023439	-501.1130371093749	897.3985595703125	351.5071716308595	-509.5185241699218	842.99462890625	323.5333862304689	-512.5546264648436	852.030029296875	237.1149139404298	-498.2142639160156	913.7618408203125	251.7156982421876	-492.2144470214843	842.721923828125	41.77766418457041	-432.4756469726562	1021.013732910156	44.18607330322277	-497.3222351074219	1050.447265625	67.49164581298837	-404.9247741699219	
116	0.46	837.5099487304688	1744.368041992188	-349.0516357421871	780.3342895507812	1690.6337890625	-271.6582641601559	782.8215942382812	1693.131958007812	-420.0610961914059	648.1194458007812	1521.672119140625	-345.5317687988278	573.2137451171875	1328.142700195312	-274.7811889648435	569.028564453125	1330.657348632812	-414.8336181640622	821.5345458984375	1354.8212890625	-351.1941223144528	730.15771484375	1468.460693359375	-175.6626281738278	705.2368774414062	1306.807373046875	-84.13150787353487	767.9094848632812	1221.947387695312	-95.78183746337864	650.1875	1221.9052734375	-63.99219512939426	702.6370239257812	1115.236572265625	-70.6883163452146	657.32373046875	1113.968383789062	-143.4808197021482	835.5538330078125	962.2509765625	-130.341857910156	874.6650390625	915.3468017578125	-190.8805694580076	827.8131103515625	869.9192504882812	-141.6789855957029	914.8801879882812	826.3115844726562	-156.1991424560545	721.3314819335938	1477.09814453125	-515.3903198242184	673.422607421875	1317.851318359375	-613.7749633789059	725.0654296875	1231.277099609375	-627.1435546874998	602.3470458984375	1248.617797851563	-634.4272460937498	650.5633544921875	1138.881591796875	-654.939758300781	603.4554443359375	1135.931884765625	-593.0025634765623	741.980224609375	956.6382446289064	-654.9300537109373	781.0277099609375	896.7421875000001	-610.9845581054685	722.1598510742188	873.4510498046876	-660.5279541015623	800.3921508789062	812.8935546875001	-660.3334960937498	704.934326171875	1070.908447265625	-178.0165710449216	581.9575805664062	1044.62451171875	-352.668762207031	701.4570922851562	1069.172973632813	-522.867980957031	645.9996948242188	929.9591674804688	-171.6675720214842	617.9495849609375	658.6445922851562	-197.9217834472655	676.3960571289062	661.5689697265625	-191.6563873291014	658.77392578125	562.0634765625	-229.6112213134764	598.7732543945312	583.1019897460938	-220.8440704345702	523.6390380859375	357.9191589355469	-230.8927307128905	573.6685180664062	327.1757507324219	-245.6150360107421	553.539306640625	246.2332916259766	-268.0672607421874	492.2353210449219	264.9688110351563	-258.5587768554687	414.347900390625	70.81490325927743	-354.293212890625	565.9805297851562	19.77390670776373	-260.2273559570312	630.080322265625	29.5271530151368	-357.5506896972656	682.3977661132812	957.4048461914064	-533.6923828124998	865.3630981445312	701.4600219726564	-524.7558593749999	808.8248291015625	701.2598876953126	-542.9962768554686	827.6681518554688	599.8849487304689	-515.1876220703124	887.4854736328125	623.8542480468751	-500.9409790039061	906.611328125	351.3224487304689	-508.8886413574218	853.195068359375	322.0558471679689	-512.0498046874999	864.0740356445312	235.6478881835939	-497.3690185546874	925.306396484375	251.9124908447267	-491.6809082031249	859.2711181640625	40.25918579101572	-431.0374755859375	1037.243286132812	46.26519775390636	-497.1551513671875	1066.320556640625	70.39789581298837	-404.4630126953125	
117	0.464	843.2013549804688	1743.328735351562	-349.2092590332027	786.0111694335938	1689.5673828125	-272.1217041015621	788.3587036132812	1691.878540039062	-420.4187011718746	653.7311401367188	1520.653198242188	-345.4778442382809	578.8561401367188	1327.120727539062	-274.6777648925778	574.4188842773438	1329.797119140625	-415.1111145019528	826.8895874023438	1353.586547851562	-351.5357360839841	735.9320068359375	1467.3330078125	-175.8224029541012	711.0181884765625	1305.753173828125	-84.1964569091794	773.794921875	1220.981201171875	-96.07587432861301	655.9849243164062	1220.744262695312	-64.21632385253879	708.4059448242188	1114.295166015625	-70.90736389160132	663.3776245117188	1112.882202148438	-143.4674224853513	841.8021850585938	961.6154174804688	-130.731994628906	880.9031982421875	914.8455200195312	-191.2526702880857	834.4262084960938	869.0005493164062	-142.0835876464842	921.4622192382812	825.9855346679688	-156.9104614257811	726.9596557617188	1476.14501953125	-515.5319213867184	678.4317016601562	1316.788452148438	-613.7075805664059	730.3466796875	1230.103393554688	-627.363098144531	607.5283813476562	1247.709228515625	-634.3388061523435	655.7794799804688	1137.833740234375	-654.728820800781	608.3790893554688	1134.97998046875	-593.0672607421873	747.13818359375	955.5537719726564	-654.8524780273435	786.0089721679688	895.5523681640626	-611.0930175781248	727.2644653320312	872.4252929687501	-660.4157104492185	805.3174438476562	811.8942871093751	-660.4593505859373	709.7129516601562	1069.91357421875	-178.4076385498045	587.3060302734375	1043.33154296875	-353.0246887207029	706.7945556640625	1068.051635742188	-523.0643920898435	650.9903564453125	929.6652221679688	-171.7469635009764	621.2236938476562	658.758544921875	-198.1022644042967	679.7415161132812	661.537353515625	-191.4379272460936	661.6764526367188	561.96826171875	-229.472930908203	601.9532470703125	583.609619140625	-220.7245178222655	525.1332397460938	358.3986511230469	-230.9222717285155	575.0472412109375	327.3154296875001	-245.4542388916015	554.0450439453125	246.4818267822266	-268.3997802734374	493.3701782226562	265.6981811523438	-258.6530456542968	414.6251831054688	71.79722595214852	-354.4276123046875	565.8282470703125	19.7588787078858	-260.31201171875	630.1204223632812	29.52335929870613	-357.5032348632812	687.8827514648438	956.0092773437501	-533.7689819335935	869.8231201171875	699.6922607421876	-524.9230957031249	813.5891723632812	699.4020385742189	-542.8642578124999	833.1981201171875	598.1862182617189	-514.1897583007811	892.0068969726562	622.2022094726564	-500.7828674316405	916.0365600585938	350.850555419922	-508.1472473144531	862.9407348632812	320.5991210937501	-511.4447021484374	875.76220703125	234.2437896728517	-497.2998046874999	936.814208984375	252.0446929931642	-490.7333374023437	875.294189453125	39.25749588012705	-430.345703125	1053.054443359375	48.53426742553722	-496.3970642089844	1081.887329101562	73.50881958007821	-404.0777587890625	
